<?xml version="1.0" standalone="no"?>
<!DOCTYPE svg PUBLIC "-//W3C//DTD SVG 20010904//EN"
 "http://www.w3.org/TR/2001/REC-SVG-20010904/DTD/svg10.dtd">
<svg version="1.0" xmlns="http://www.w3.org/2000/svg"
 width="1080.000000pt" height="1080.000000pt" viewBox="0 0 1080.000000 1080.000000"
 preserveAspectRatio="xMidYMid meet">

<g transform="translate(0.000000,1080.000000) scale(0.100000,-0.100000)"
fill="#000000" stroke="none">
<path d="M0 5400 l0 -5400 5400 0 5400 0 0 5400 0 5400 -5400 0 -5400 0 0
-5400z m6420 515 c0 -12 -17 -15 -89 -15 l-89 0 -15 -72 c-9 -40 -25 -122 -37
-183 -29 -151 -37 -171 -74 -200 -47 -36 -99 -34 -138 6 -29 28 -30 34 -24 82
7 56 16 110 40 222 7 39 17 87 20 108 l7 37 -90 0 -90 0 -15 -72 c-60 -290
-67 -362 -41 -426 22 -51 52 -81 110 -108 l50 -24 -190 0 -190 0 50 24 c61 28
100 72 116 129 31 116 -38 207 -191 247 -59 15 -90 36 -90 59 0 39 96 42 185
6 69 -29 66 -30 111 58 l25 48 -68 32 c-62 29 -76 32 -168 32 -92 0 -104 -2
-154 -30 -30 -16 -68 -48 -84 -70 -17 -22 -27 -31 -23 -20 4 11 10 41 13 68
l6 47 -90 0 -91 0 -7 -47 c-4 -27 -15 -84 -24 -128 -10 -44 -27 -126 -37 -182
l-18 -103 -134 0 -134 0 7 43 c3 23 12 74 20 112 25 118 44 218 50 263 l7 42
-90 0 -89 0 -12 -62 c-7 -35 -19 -99 -28 -143 -8 -44 -23 -120 -33 -170 -11
-49 -22 -108 -25 -130 -11 -73 -21 -69 -39 17 -18 87 -31 145 -66 313 -12 55
-24 116 -28 135 l-8 35 -89 3 -90 2 -74 -125 c-41 -68 -76 -123 -78 -122 -1 2
9 65 23 140 l26 137 1139 0 c1006 0 1139 -2 1139 -15z m1560 -4 c0 -5 -11 -65
-24 -133 -14 -68 -41 -208 -61 -313 -19 -104 -40 -201 -46 -215 -9 -20 -148
-707 -149 -732 0 -5 191 -8 425 -8 l425 0 -1 -27 c0 -16 -28 -165 -62 -333
l-62 -305 -713 -3 c-604 -2 -713 0 -718 12 -5 12 112 641 122 657 2 3 32 156
68 340 36 184 68 349 72 367 l7 32 -416 0 c-229 0 -418 3 -420 8 -4 6 63 367
114 610 l10 52 715 0 c427 0 714 -4 714 -9z m-5050 -20 c0 -5 -11 -65 -24
-133 -13 -68 -39 -201 -58 -295 -18 -95 -36 -173 -40 -173 -8 0 -108 180 -108
195 0 6 18 20 40 33 105 60 131 210 53 303 -31 36 -70 57 -126 69 -30 5 1 8
111 9 86 1 152 -3 152 -8z m400 0 c0 -6 -6 -38 -14 -73 -8 -35 -17 -80 -20
-100 l-7 -38 -111 0 c-84 0 -109 3 -105 13 2 6 13 56 23 109 l19 98 108 0 c60
0 107 -4 107 -9z m290 5 c0 -2 -20 -16 -45 -30 -24 -15 -51 -36 -60 -48 -15
-22 -15 -22 -15 -1 0 11 3 35 6 52 6 30 8 31 60 31 30 0 54 -2 54 -4z m410 -8
c0 -7 -16 -92 -35 -188 -19 -96 -35 -188 -36 -205 -1 -28 -2 -27 -10 9 -19 79
-88 136 -199 166 -25 6 -55 18 -67 26 -27 17 -30 49 -7 58 34 13 112 4 169
-19 33 -14 62 -21 66 -17 4 4 21 33 39 65 l32 57 -63 30 -64 29 88 1 c63 0 87
-3 87 -12z m-1388 -155 c11 -10 18 -30 18 -54 0 -52 -26 -69 -109 -69 l-64 0
7 54 c10 85 11 86 74 86 38 0 61 -5 74 -17z m1682 -155 l8 -48 -61 0 c-33 0
-61 2 -61 5 0 9 71 149 84 164 9 11 12 5 17 -30 3 -24 9 -65 13 -91z m950 83
c7 -47 62 -100 127 -124 24 -9 67 -25 94 -35 38 -13 51 -23 53 -41 2 -13 -2
-28 -10 -32 -25 -16 -97 -9 -165 17 -37 14 -75 28 -83 30 -22 7 -87 -125 -68
-138 42 -29 94 -49 152 -60 51 -10 65 -16 61 -28 -3 -8 -27 -132 -55 -275 -28
-143 -59 -302 -69 -353 -16 -79 -16 -94 -4 -99 7 -3 198 -3 424 -1 225 2 412
1 414 -2 3 -6 -100 -557 -120 -637 l-5 -23 -721 0 -720 0 7 38 c4 20 33 170
65 332 158 794 200 1014 195 1026 -4 12 -82 14 -418 15 -227 1 -402 4 -388 6
19 3 33 18 55 58 l29 55 112 0 c124 0 116 5 130 -72 l6 -38 402 0 402 0 28
143 c15 78 31 161 37 184 5 23 9 53 9 67 0 40 17 31 24 -13z m-1770 -52 c21
-32 78 -65 174 -98 64 -22 78 -30 80 -50 2 -13 -2 -28 -10 -32 -25 -16 -97 -9
-165 17 -37 14 -75 28 -83 30 -11 4 -25 -14 -48 -58 -17 -35 -32 -66 -32 -70
0 -17 110 -61 184 -74 62 -11 93 -12 140 -3 66 12 134 42 142 64 3 7 12 16 21
19 11 5 9 -2 -6 -28 -25 -40 -26 -46 -5 -46 13 0 15 -6 9 -27 -3 -15 -15 -71
-26 -125 l-20 -98 28 -24 c27 -22 243 -192 383 -300 148 -115 240 -189 240
-194 0 -5 -99 -517 -126 -652 -8 -41 -16 -76 -18 -77 -2 -2 -36 25 -77 60 -41
34 -88 74 -105 87 -18 14 -137 113 -265 220 -129 107 -241 201 -250 208 -15
11 -23 4 -66 -55 -126 -172 -287 -285 -471 -330 -96 -23 -264 -21 -378 5 -329
74 -536 305 -575 641 -14 117 -1 258 44 491 l32 165 81 3 81 3 19 92 c20 91
20 92 52 95 31 3 33 1 79 -92 l48 -96 192 0 192 0 6 48 c4 26 14 77 22 114
l14 67 105 3 c122 4 115 15 84 -131 -11 -52 -20 -96 -20 -98 0 -1 43 -3 95 -3
93 0 95 0 95 24 0 22 8 65 45 241 13 61 19 93 25 130 1 6 5 -2 10 -16 4 -14
15 -37 24 -50z m2808 -254 l-17 -80 -90 -2 c-55 -1 -80 1 -65 6 69 22 145 87
173 148 18 40 18 15 -1 -72z"/>
<path d="M2816 5223 c-19 -64 -56 -299 -56 -354 0 -91 36 -161 104 -203 40
-25 60 -30 131 -34 71 -4 90 -1 129 18 59 28 120 98 146 167 16 44 90 384 90
415 0 4 -121 8 -269 8 -248 0 -270 -1 -275 -17z"/>
</g>
</svg>
